<?xml version="1.0" encoding="UTF-8" standalone="no"?>
<!-- Created with Inkscape (http://www.inkscape.org/) -->

<svg
   xmlns:dc="http://purl.org/dc/elements/1.1/"
   xmlns:cc="http://creativecommons.org/ns#"
   xmlns:rdf="http://www.w3.org/1999/02/22-rdf-syntax-ns#"
   xmlns:svg="http://www.w3.org/2000/svg"
   xmlns="http://www.w3.org/2000/svg"
   xmlns:sodipodi="http://sodipodi.sourceforge.net/DTD/sodipodi-0.dtd"
   xmlns:inkscape="http://www.inkscape.org/namespaces/inkscape"
   width="68"
   height="42"
   id="svg3359"
   version="1.1"
   inkscape:version="0.48.4 r9939"
   sodipodi:docname="New document 5">
  <defs
     id="defs3361" />
  <sodipodi:namedview
     id="base"
     pagecolor="#ffffff"
     bordercolor="#666666"
     borderopacity="1.0"
     inkscape:pageopacity="0.0"
     inkscape:pageshadow="2"
     inkscape:zoom="5.6"
     inkscape:cx="75.686383"
     inkscape:cy="-1.3536826"
     inkscape:document-units="px"
     inkscape:current-layer="layer1"
     showgrid="false"
     fit-margin-top="0"
     fit-margin-left="0"
     fit-margin-right="0"
     fit-margin-bottom="0"
     inkscape:window-width="1710"
     inkscape:window-height="1061"
     inkscape:window-x="472"
     inkscape:window-y="143"
     inkscape:window-maximized="0" />
  <metadata
     id="metadata3364">
    <rdf:RDF>
      <cc:Work
         rdf:about="">
        <dc:format>image/svg+xml</dc:format>
        <dc:type
           rdf:resource="http://purl.org/dc/dcmitype/StillImage" />
        <dc:title></dc:title>
      </cc:Work>
    </rdf:RDF>
  </metadata>
  <g
     inkscape:label="Layer 1"
     inkscape:groupmode="layer"
     id="layer1"
     transform="translate(-341,-511.36218)">
    <path
       style="fill:#838383;stroke:none"
       inkscape:connector-curvature="0"
       d="m 347.25,543.41218 q 2.05,1.75 5.15,3.3 3.05,1.55 6.6,2.55 7.1,2.1 16,2.1 8.9,0 16.05,-2.1 3.5,-1 6.6,-2.55 3.05,-1.55 5.15,-3.3 2.1,-1.8 3.15,-3.8 1,-1.9 1.05,-4.05 l 0,-6 0,-0.2 0,-0.25 q -0.05,-2.05 -1.05,-3.95 -1.05,-2 -3.15,-3.8 -2.05,-1.75 -5.15,-3.3 -3.1,-1.55 -6.6,-2.55 l -2.3,-0.65 q -6.25,-1.5 -13.75,-1.5 -7.5,0 -13.65,1.5 l -2.35,0.65 q -3.55,1 -6.6,2.55 -3.1,1.55 -5.15,3.3 -4.1,3.45 -4.25,7.75 l 0,0.25 0,0.2 0,6 q 0.1,4.35 4.25,7.85 m 42,-30.45 2.4,0.65 -0.05,0 q 3.7,1 6.95,2.65 3.35,1.7 5.55,3.6 2.4,2.05 3.65,4.4 1.2,2.3 1.25,4.8 l 0,6.55 q -0.05,2.6 -1.25,4.95 -1.25,2.3 -3.65,4.4 -2.3,1.85 -5.55,3.55 -3.25,1.65 -6.95,2.7 l 0.05,0 q -7.45,2.15 -16.65,2.15 -9.2,0 -16.55,-2.15 -3.75,-1.1 -6.95,-2.7 -3.35,-1.7 -5.55,-3.55 -4.9,-4.15 -4.95,-9.35 l 0,-6.55 q 0.1,-5.15 4.95,-9.2 2.2,-1.9 5.55,-3.6 l 0,0.05 q 3.2,-1.65 6.95,-2.7 l 2.45,-0.7 2.8,-0.6 q 5.2,-0.95 11.3,-0.95 l 11.4,0.95 2.85,0.6 0,0.05"
       id="path188" />
    <path
       style="fill:#1ea7e1;stroke:none"
       inkscape:connector-curvature="0"
       d="m 375,513.36218 q 7.5,0 13.75,1.5 l 2.3,0.65 -4.8,4.15 q -5,-1.5 -11.25,-1.5 l 0,-4.8 m 27.8,8 q 2.1,1.8 3.15,3.8 1,1.9 1.05,3.95 l 0,0.25 -9.6,0 q 0,-3.1 -2.95,-5.6 l 8.35,-2.4 m -59.8,8.2 0,-0.2 9.6,0 q 0,3.15 2.95,5.65 l -8.3,2.4 q -2.75,-2.35 -3.7,-5.05 -0.5,-1.35 -0.55,-2.8 m 4.25,-8.2 q 2.05,-1.75 5.15,-3.3 3.05,-1.55 6.6,-2.55 l 4.8,4.15 q -2.4,0.7 -4.55,1.8 l -0.05,0 q -2.2,1.1 -3.65,2.3 l -8.3,-2.4 m 43.8,21.9 -4.8,-4.15 q 2.45,-0.75 4.6,-1.8 2.15,-1.1 3.6,-2.3 l 8.35,2.4 q -2.1,1.75 -5.15,3.3 -3.1,1.55 -6.6,2.55 m -32.05,0 4.8,-4.15 q 5,1.45 11.2,1.45 l 0,4.8 q -8.9,0 -16,-2.1"
       id="path190" />
    <path
       style="fill:#ffffff;stroke:none"
       inkscape:connector-curvature="0"
       d="m 359,543.26218 q -3.55,-1 -6.6,-2.55 -3.1,-1.55 -5.15,-3.3 l 8.3,-2.4 q -2.95,-2.5 -2.95,-5.65 l -9.6,0 0,-0.25 q 0.15,-4.3 4.25,-7.75 l 8.3,2.4 q 1.45,-1.2 3.65,-2.3 l 0.05,0 q 2.15,-1.1 4.55,-1.8 l -4.8,-4.15 2.35,-0.65 q 6.15,-1.5 13.65,-1.5 l 0,4.8 q 6.25,0 11.25,1.5 l 4.8,-4.15 q 3.5,1 6.6,2.55 3.1,1.55 5.15,3.3 l -8.35,2.4 q 2.95,2.5 2.95,5.6 l 9.6,0 0,0.2 q -0.05,1.45 -0.5,2.85 l -0.55,1.2 q -1.05,2 -3.15,3.8 l -8.35,-2.4 q -1.45,1.2 -3.6,2.3 -2.15,1.05 -4.6,1.8 l 4.8,4.15 q -7.15,2.1 -16.05,2.1 l 0,-4.8 q -6.2,0 -11.2,-1.45 l -4.8,4.15 m 16,-4.3 q 5.35,0 9.65,-1.25 l 3.95,-1.55 3.1,-1.95 q 2.5,-2.15 2.5,-4.85 0,-2.65 -2.5,-4.8 -1.25,-1.05 -3.1,-1.95 -1.85,-0.95 -3.95,-1.55 -4.3,-1.3 -9.65,-1.3 -5.35,0 -9.6,1.3 -2.1,0.6 -3.95,1.55 -1.85,0.9 -3.1,1.95 -2.55,2.15 -2.55,4.8 0,2.7 2.55,4.85 1.25,1.05 3.1,1.95 1.85,0.95 3.95,1.55 4.3,1.25 9.6,1.25 m 15.05,-13.85 q 2.15,1.9 2.15,4.25 0,2.4 -2.2,4.35 l -2.8,1.75 -3.55,1.4 q -3.85,1.1 -8.65,1.1 -4.7,0 -8.55,-1.05 l 0,-0.05 -3.55,-1.4 q -1.7,-0.85 -2.8,-1.75 -2.3,-1.95 -2.3,-4.35 0,-2.35 2.3,-4.25 1.1,-0.95 2.8,-1.8 1.65,-0.85 3.55,-1.4 3.75,-1.15 8.55,-1.15 4.8,0 8.65,1.15 1.85,0.55 3.55,1.4 l 2.8,1.8 0.05,0"
       id="path192" />
    <path
       style="fill:#e7e7e7;stroke:none"
       inkscape:connector-curvature="0"
       d="m 390.05,525.11218 -0.05,-0.05 0,0.05 -2.8,-1.8 q -1.7,-0.85 -3.55,-1.4 -3.85,-1.15 -8.65,-1.15 -4.8,0 -8.55,1.15 -1.9,0.55 -3.55,1.4 -1.7,0.85 -2.8,1.8 -2.3,1.9 -2.3,4.25 0,2.4 2.3,4.35 1.1,0.9 2.8,1.75 l 3.55,1.4 -0.05,0 0.05,0.05 q 3.85,1.05 8.55,1.05 4.8,0 8.65,-1.1 l 3.55,-1.4 2.8,-1.75 q 2.2,-1.95 2.2,-4.35 0,-2.35 -2.15,-4.25 m 16.95,4.45 0,6 q -0.05,2.15 -1.05,4.05 -1.05,2 -3.15,3.8 l 0,-6 q 2.1,-1.8 3.15,-3.8 l 0.55,-1.2 q 0.45,-1.4 0.5,-2.85 m -15.95,19.7 q -7.15,2.1 -16.05,2.1 l 0,-6 q 8.9,0 16.05,-2.1 l 0,6 m -32.05,0 q -3.55,-1 -6.6,-2.55 -3.1,-1.55 -5.15,-3.3 l 0,-6 q 2.05,1.75 5.15,3.3 3.05,1.55 6.6,2.55 l 0,6 m 16,-10.3 q -5.3,0 -9.6,-1.25 -2.1,-0.6 -3.95,-1.55 -1.85,-0.9 -3.1,-1.95 -2.55,-2.15 -2.55,-4.85 0,-2.65 2.55,-4.8 1.25,-1.05 3.1,-1.95 1.85,-0.95 3.95,-1.55 4.25,-1.3 9.6,-1.3 5.35,0 9.65,1.3 2.1,0.6 3.95,1.55 1.85,0.9 3.1,1.95 2.5,2.15 2.5,4.8 0,2.7 -2.5,4.85 l -3.1,1.95 -3.95,1.55 q -4.3,1.25 -9.65,1.25"
       id="path194" />
    <path
       style="fill:#c83e3e;stroke:none"
       inkscape:connector-curvature="0"
       d="m 366.45,536.91218 -0.05,-0.05 0.05,0 0,0.05 m 23.55,-11.8 0,-0.05 0.05,0.05 -0.05,0"
       id="path196" />
    <path
       style="fill:#2397c9;stroke:none"
       inkscape:connector-curvature="0"
       d="m 402.8,543.41218 q -2.1,1.75 -5.15,3.3 -3.1,1.55 -6.6,2.55 l 0,-6 q 3.5,-1 6.6,-2.55 3.05,-1.55 5.15,-3.3 l 0,6 m -27.8,7.95 q -8.9,0 -16,-2.1 l 0,-6 q 7.1,2.1 16,2.1 l 0,6 m -27.75,-7.95 q -4.15,-3.5 -4.25,-7.85 l 0,-6 q 0.05,1.45 0.55,2.8 0.95,2.7 3.7,5.05 l 0,6"
       id="path198" />
  </g>
</svg>
